<svg xmlns="http://www.w3.org/2000/svg" viewBox="0 0 1024 330.61"><defs><style>.cls-1,.cls-2{fill:#fff;}.cls-2{stroke:#fff;stroke-miterlimit:10;stroke-width:0.25px;}</style></defs><g id="logo_escudo" data-name="logo escudo"><path class="cls-1" d="M923.41,187.72a7.13,7.13,0,0,1,.48,1.11c.76,3,1.53,6,2.23,9.06.27,1.16.16,1.31-.93,1.78a56.37,56.37,0,0,1-11.77,3.53,94.24,94.24,0,0,1-12.22,1.4,67.49,67.49,0,0,1-9.75-.1c-10.25-.93-19.43-4.37-26.81-11.8a39.6,39.6,0,0,1-9.89-17.1,55.19,55.19,0,0,1-2.21-15.28,64.51,64.51,0,0,1,1.72-15.79,46.17,46.17,0,0,1,12.15-22.26,37.83,37.83,0,0,1,22.32-10.79,41.67,41.67,0,0,1,17.45,1.21,31.35,31.35,0,0,1,17,12.06,43.59,43.59,0,0,1,7.18,16.64,56.19,56.19,0,0,1,1.24,14.34c-.06,1.41-.23,2.82-.39,4.23-.08.74-.3.95-1.1,1-1,.07-2,.07-3,.07h-55c-1,0-2,0-3,.05-.8,0-1,.23-1,1a36.38,36.38,0,0,0,3.05,14,25.59,25.59,0,0,0,14.06,13.46,33.73,33.73,0,0,0,12.42,2.5,65.14,65.14,0,0,0,19.93-2.43C919.53,189.09,921.39,188.4,923.41,187.72Zm-7.54-39c0-.55,0-1,0-1.53a33.18,33.18,0,0,0-3.1-12.7A19.71,19.71,0,0,0,898,123.24a28.78,28.78,0,0,0-5.71-.34,20.45,20.45,0,0,0-11.74,3.81,25.39,25.39,0,0,0-6.61,6.82,35.81,35.81,0,0,0-4.2,9,16.82,16.82,0,0,0-1,5c0,1.22.45,1.81,1.6,1.72,1.42-.1,2.82.07,4.24.06q18.79,0,37.6,0A9.26,9.26,0,0,0,915.87,148.69Z"/><path class="cls-1" d="M802.31,113.51a5.37,5.37,0,0,0,.17-2.16c0-5.81,0-11.62,0-17.43,0-2.64-.2-2.21,2.32-2.89,3.89-1.06,7.79-2.09,11.69-3.13a9.05,9.05,0,0,1,1-.24.58.58,0,0,1,.76.51,21.69,21.69,0,0,1,.18,2.54c0,6.44,0,12.89,0,19.33,0,3.58-.5,3.08,3.2,3.11,5.88,0,11.75,0,17.63,0,.57,0,1.13,0,1.7,0a.69.69,0,0,1,.7.65,7.48,7.48,0,0,1,.11,1q0,4.68,0,9.35a3.12,3.12,0,0,1,0,.43.76.76,0,0,1-.76.83c-.71,0-1.42.06-2.12.06-5.6,0-11.19,0-16.79,0-1,0-2,.11-3,.19a.76.76,0,0,0-.74.85c0,.5,0,1,0,1.49v45a38.76,38.76,0,0,0,.52,7.61,15.86,15.86,0,0,0,2,5.57,10.37,10.37,0,0,0,8.44,5,38.67,38.67,0,0,0,8.46-.54c2-.28,2.2-.14,2.35,1.87.19,2.47.32,4.94.45,7.42,0,.49,0,1,0,1.48a1.33,1.33,0,0,1-1,1.4c-.89.22-1.77.51-2.66.73a44.65,44.65,0,0,1-9.9,1.11,28.33,28.33,0,0,1-10.42-1.67,19.46,19.46,0,0,1-11.56-11.17,34.52,34.52,0,0,1-2.23-9.46,93.71,93.71,0,0,1-.37-10.19q0-22,0-44c0-2.67.48-2.67-2.61-2.72s-6.09,0-9.13,0c-.5,0-1,0-1.49,0a.65.65,0,0,1-.58-.54,3.94,3.94,0,0,1-.1-.84c0-3.26,0-6.51,0-9.77,0-1,.17-1.18,1.08-1.18q5.31,0,10.62,0A13.19,13.19,0,0,1,802.31,113.51Z"/><path class="cls-1" d="M990.81,204.77c-9-.08-17.25-1.67-24.81-6.06a39.47,39.47,0,0,1-16.92-19.55,50.11,50.11,0,0,1-3.5-14.59,53.61,53.61,0,0,1,2-21.41q6.54-21.09,27.28-28.77a53.19,53.19,0,0,1,19.81-3.08,57,57,0,0,1,17.7,3.08c1,.35,2,.82,2.92,1.26a.84.84,0,0,1,.51,1,9.58,9.58,0,0,1-.24,1l-2.76,9.36a4.31,4.31,0,0,1-.19.61c-.15.35-.38.59-.81.42s-.92-.35-1.38-.55a38.25,38.25,0,0,0-12.72-3.08,41.44,41.44,0,0,0-11.61.55A28.09,28.09,0,0,0,967.24,138a35.78,35.78,0,0,0-5.06,14.95,43.33,43.33,0,0,0,.49,13.73,30.64,30.64,0,0,0,12,19.42,28.65,28.65,0,0,0,13.28,5.26,43.5,43.5,0,0,0,21.88-2.75c.79-.3,1.57-.64,2.36-.94a.64.64,0,0,1,1,.49c.36,1.37.67,2.75,1,4.12q.67,2.79,1.37,5.56c.37,1.47.22,1.82-1.2,2.44a46.82,46.82,0,0,1-9.52,2.94A60.6,60.6,0,0,1,993,204.62C992.13,204.63,991.29,204.74,990.81,204.77Z"/><path class="cls-1" d="M667.74,127.35c.39-.57.8-1.14,1.18-1.72,4.89-7.3,11.76-11.7,20.22-13.73a33.31,33.31,0,0,1,13.7-.41,28.89,28.89,0,0,1,18,10.36,35,35,0,0,1,6.82,14.67,53.24,53.24,0,0,1,1.29,12q0,25.49,0,51c0,1,.46,2.32-.36,3s-1.9.2-2.88.2c-3.47,0-6.94,0-10.41,0-.77,0-1.55,0-2.25-.06a2.88,2.88,0,0,1-.32-2q0-21,0-42.07c0-4.1.09-8.21-.28-12.31A30.61,30.61,0,0,0,709,134a17.51,17.51,0,0,0-7.46-7.32,19,19,0,0,0-6.69-1.93,24,24,0,0,0-8.43.54,22.26,22.26,0,0,0-12.27,8.24A23.31,23.31,0,0,0,669,148.29q0,23.16,0,46.31c0,2.34,0,4.67,0,7,0,.91-.21,1.08-1.15,1.13-.71,0-1.42,0-2.13,0H655.27c-.64,0-1.27,0-1.91,0a.76.76,0,0,1-.77-.83c0-.56,0-1.13,0-1.7v-44q0-8.29,0-16.57c0-7.93-.13-15.86-.57-23.78,0-.84-.42-1.88.1-2.46s1.74-.3,2.63-.31c2.91,0,5.81,0,8.72,0,.7,0,1.41,0,2.12.07a.79.79,0,0,1,.8.82c0,.21,0,.42,0,.63.17,2.83.32,5.66.51,8.48.09,1.4.26,2.79.39,4.18Z"/><path class="cls-1" d="M625.55,158q0,9.14,0,18.26c0,7.72,0,15.44.52,23.14a9.25,9.25,0,0,1-.05,3.15c-1,.56-2.07.23-3.1.25-2.55.05-5.1,0-7.65,0-.71,0-1.42,0-2.12-.06-1.27-.08-1.36-.2-1.45-1.55q-.39-5.5-.76-11a7.89,7.89,0,0,0-.09-.85c0-.19,0-.41-.26-.51s-.4.07-.52.23c-.51.68-1,1.39-1.49,2.06A33.28,33.28,0,0,1,592.2,203a35,35,0,0,1-20.91.43A26,26,0,0,1,555.56,191a39.24,39.24,0,0,1-4.18-11.07A55.13,55.13,0,0,1,550,167.71q0-25.69,0-51.4a9.3,9.3,0,0,1,.17-2.93c1-.59,2.07-.24,3.1-.26,3.47-.05,6.94,0,10.4,0,.64,0,1.28,0,1.91,0,.44,0,.61.29.62.69,0,.64,0,1.28,0,1.91q0,17.42,0,34.83c0,4.11,0,8.22,0,12.32a57.15,57.15,0,0,0,1.22,12,26.24,26.24,0,0,0,3.55,8.8,16.16,16.16,0,0,0,11.08,7.16,21.22,21.22,0,0,0,14.78-2.37c7.48-4.31,12-10.69,12.22-19.56.17-8.42,0-16.84,0-25.27,0-9.34,0-18.69,0-28,0-2.79-.26-2.53,2.5-2.55,3.89,0,7.78,0,11.68,0H624c1.54,0,1.55,0,1.56,1.51,0,2.34,0,4.67,0,7q0,18.15,0,36.32Z"/><path class="cls-1" d="M771.44,113.24a6.48,6.48,0,0,1,.29,2.9q0,14.13,0,28.25t0,28.47v26.76c0,.71,0,1.42-.06,2.13a.81.81,0,0,1-.78.83,12.12,12.12,0,0,1-1.69.18q-6.27,0-12.53,0c-1,0-1.17-.12-1.22-1.24s-.06-2.26-.06-3.4q0-38.65,0-77.32c0-2.19-.08-4.39-.13-6.58,0-.92.18-1.18,1.06-1.18q7.32,0,14.66.07A1.83,1.83,0,0,1,771.44,113.24Z"/><path class="cls-1" d="M763.67,77.78c5.12-.1,10,3.78,9.89,10.38a10,10,0,1,1-9.89-10.38Z"/><path class="cls-1" d="M565,240.27c2.89-2.7,6-3,8.55.43.38-.39.73-.79,1.12-1.14a4.77,4.77,0,0,1,8.07,2.56,8.63,8.63,0,0,1,.19,1.9q0,3.93,0,7.85a4.37,4.37,0,0,1-.13.78,1.3,1.3,0,0,1-.26.12c-2.12.17-2.12.16-2.13-1.92,0-1.84,0-3.68,0-5.52a13.91,13.91,0,0,0-.19-2.33,2.92,2.92,0,0,0-2.63-2.64,3.31,3.31,0,0,0-3.25,2.25,6.64,6.64,0,0,0-.32,2.3c0,2,0,4,0,6,0,.42,0,.85,0,1.27a.64.64,0,0,1-.63.7h-.43c-1.33,0-1.44-.05-1.45-1.4,0-2.13,0-4.25,0-6.37a11.91,11.91,0,0,0-.19-2.32,2.84,2.84,0,0,0-4.92-1.46,4.28,4.28,0,0,0-1.27,3.26c0,1.84,0,3.68,0,5.52,0,.43,0,.85,0,1.28,0,1.49-.09,1.55-1.56,1.49-.88,0-1-.18-1-1.18q0-6.15-.07-12.31c0-.7.13-.81.89-.83h.43c.8,0,.8,0,1,1C564.82,239.69,564.87,239.9,565,240.27Z"/><path class="cls-1" d="M854.65,251.77c0,1.86,0,3.77,0,5.67,0,1.1-.08,1.16-1.22,1.18H853c-.84,0-1-.12-1-1,0-4,0-8.07,0-12.1,0-1.92-.07-3.83-.11-5.74,0-1.2.05-1.28,1.31-1.26l.43,0a.61.61,0,0,1,.64.67,4.68,4.68,0,0,0,.07.84c.06.26.3.26.48.16a4.45,4.45,0,0,0,.47-.41c3.71-3.05,8.63-1.56,9.91,3a9.57,9.57,0,0,1-.24,6.05,6.1,6.1,0,0,1-9.53,2.95C855.3,251.74,855.18,251.52,854.65,251.77Zm0-6.05h0v1.48a4,4,0,0,0,7.67,1.47,7.24,7.24,0,0,0,.09-5.77,3.91,3.91,0,0,0-4.17-2.57,4.19,4.19,0,0,0-3.54,3.7A13.6,13.6,0,0,0,854.69,245.72Z"/><path class="cls-1" d="M589.64,251.65c0,1.78,0,3.54,0,5.3s.18,1.69-1.75,1.66a2.69,2.69,0,0,1-.56-.1,1.63,1.63,0,0,1-.21-.17.48.48,0,0,1,0-.2q0-9.55-.07-19.09a1.24,1.24,0,0,1,.16-.39c.38-.24.81-.1,1.21-.14.61-.06.93.19,1,.82a1.22,1.22,0,0,0,.28.91c.61-.08.84-.58,1.23-.87a5.89,5.89,0,0,1,8.86,2.08,8.82,8.82,0,0,1-.2,8.55,6.07,6.07,0,0,1-8.62,2.14A1.64,1.64,0,0,0,589.64,251.65Zm0-5.66a9.55,9.55,0,0,0,0,1.41A3.94,3.94,0,0,0,593,251a3.84,3.84,0,0,0,4.32-2.3,7,7,0,0,0,0-5.95,3.86,3.86,0,0,0-3.68-2.42A4.11,4.11,0,0,0,590,243,6.86,6.86,0,0,0,589.65,246Z"/><path class="cls-1" d="M681.42,239.78c.45-.46.29-.9.3-1.29,0-1.91,0-3.82,0-5.73,0-.82.16-.93,1-.94h.85a.65.65,0,0,1,.69.64c0,.43,0,.85,0,1.27q0,8.93,0,17.83a3.91,3.91,0,0,1-.05.84.43.43,0,0,1-.41.4l-.85,0c-.58,0-.95-.16-1-.81,0-.33,0-.71-.39-.93a5.91,5.91,0,0,0-.5.32c-3.65,3.06-8.35,1.81-9.81-2.68a9.18,9.18,0,0,1,.37-6.83,6.14,6.14,0,0,1,7.6-3.37A9.83,9.83,0,0,1,681.42,239.78Zm.29,5.89h0c0-.5,0-1,0-1.49a3.9,3.9,0,0,0-7.45-1.63,7.18,7.18,0,0,0-.08,6.16,3.6,3.6,0,0,0,2.68,2.19,4,4,0,0,0,4.83-3.54A13.61,13.61,0,0,0,681.71,245.67Z"/><path class="cls-1" d="M548.1,233.12a78.67,78.67,0,0,1,10.68-.06,7,7,0,0,1,.12.8c0,1.12-.07,1.22-1.17,1.23-2.05,0-4.1,0-6.16,0-.71,0-.83.13-.84.89,0,1.41,0,2.83,0,4.24,0,1,.11,1.06,1.14,1.07,1.91,0,3.82,0,5.72,0,.38,0,.75.1.81.52s.19,1-.17,1.41a1.11,1.11,0,0,1-.77.24c-1.56,0-3.11,0-4.67,0-.49,0-1,0-1.48,0-.32,0-.55.17-.55.5,0,2,0,4,0,5.94,0,.54.41.68.87.68h5.3l1.7,0c.54,0,.71.31.73.81,0,1.17-.09,1.34-1.29,1.35q-4.35,0-8.69,0c-1.26,0-1.34-.09-1.35-1.31,0-3.81,0-7.63,0-11.45,0-1.91,0-3.82,0-5.73C548,233.94,548.07,233.52,548.1,233.12Z"/><path class="cls-1" d="M830.85,235.55a12.28,12.28,0,0,0-3.49-.84,5,5,0,0,0-2.27.42,2.82,2.82,0,0,0-.77,4.74,8.44,8.44,0,0,0,2.76,1.54,13.4,13.4,0,0,1,3.18,1.67,4.87,4.87,0,0,1,2.06,3.55,5.49,5.49,0,0,1-4.52,6.22,10.67,10.67,0,0,1-6.66-.59c-.79-.35-.84-.45-.59-1.28.09-.33.22-.65.32-.94.5-.29.86,0,1.23.17a8.44,8.44,0,0,0,4.57.61,3.24,3.24,0,0,0,3-3.88,3.06,3.06,0,0,0-1.32-2.08,9.71,9.71,0,0,0-2.44-1.25,12.34,12.34,0,0,1-2.84-1.41,4.94,4.94,0,0,1-2.28-4.93,5,5,0,0,1,3.3-4.09,9.17,9.17,0,0,1,6.83.06.71.71,0,0,1,.45,1C831.22,234.64,831.06,235,830.85,235.55Z"/><path class="cls-1" d="M1007.17,245.75a10.76,10.76,0,0,1,.3-2.54,7.12,7.12,0,0,1,10.28-4.13,6,6,0,0,1,2.75,3.11,8.74,8.74,0,0,1,.18,6.42,6.28,6.28,0,0,1-3.87,3.95c-4.95,1.83-9.31-1.15-9.6-6C1007.19,246.29,1007.18,246,1007.17,245.75Zm2.66-.17a6.4,6.4,0,0,0,.66,3.25,3.91,3.91,0,0,0,3.53,2.32,3.78,3.78,0,0,0,3.65-2.13,7.06,7.06,0,0,0-.09-6.9,4,4,0,0,0-7,.16A6.79,6.79,0,0,0,1009.83,245.58Z"/><path class="cls-1" d="M687.54,245.61a21.6,21.6,0,0,1,.35-2.3,7.1,7.1,0,0,1,10.39-4.18,6.33,6.33,0,0,1,2.93,3.76,9,9,0,0,1,0,5.43,6.43,6.43,0,0,1-3.13,3.84c-4.23,2.3-10.08.4-10.47-5.7,0-.28,0-.56,0-.85Zm2.72.14a6.05,6.05,0,0,0,.68,3.1,3.9,3.9,0,0,0,3.55,2.3,3.77,3.77,0,0,0,3.63-2.15,7.06,7.06,0,0,0-.12-6.9,4,4,0,0,0-6.85,0A6.84,6.84,0,0,0,690.26,245.75Z"/><path class="cls-1" d="M615,246.29c0,2.76,1.24,4.31,3.82,4.66a9.29,9.29,0,0,0,4.18-.42c.44-.14.65.11.78.47.36.95.21,1.28-.71,1.58a11.1,11.1,0,0,1-5.45.37,5.94,5.94,0,0,1-4.94-4.41,9.08,9.08,0,0,1,.46-6.62,6.33,6.33,0,0,1,7.4-3.52,4.8,4.8,0,0,1,2.82,1.75,7.28,7.28,0,0,1,1.46,5.39.57.57,0,0,1-.53.55c-.42,0-.85,0-1.27,0h-6.58A3,3,0,0,0,615,246.29Zm3.47-2.08h0c.91,0,1.83,0,2.74,0,1.09,0,1.22-.3,1-1.28a3.31,3.31,0,0,0-3.85-2.76,3.66,3.66,0,0,0-3.1,2.49c-.62,1.41-.16,1.58.91,1.55C617,244.19,617.72,244.21,618.49,244.21Z"/><path class="cls-1" d="M845.31,238.63a5,5,0,0,1,2,0c.45.33.34.77.34,1.18q.07,6,.13,12.09c0,.78-.19,1-1,1-1.12,0-1.16,0-1.42-1.29a2.63,2.63,0,0,0-.15-.35c-.53-.13-.73.35-1,.61a5.54,5.54,0,0,1-5,1.14,3.9,3.9,0,0,1-2.84-2.33,8,8,0,0,1-.72-3.29q0-3.93,0-7.86c0-.83.13-.92,1-.95.35,0,.71,0,1.06,0a2.07,2.07,0,0,1,.4.13,3.78,3.78,0,0,1,.15,1.67c0,1.84,0,3.68,0,5.52a14.27,14.27,0,0,0,.25,2.53,2.89,2.89,0,0,0,4.13,2.35,3.32,3.32,0,0,0,2.3-2.8,16,16,0,0,0,.06-1.7c0-2,0-4.1,0-6.15A2.12,2.12,0,0,1,845.31,238.63Z"/><path class="cls-1" d="M974.18,240.2c.71-.07,1-.66,1.41-1a5.71,5.71,0,0,1,3.61-1,4.65,4.65,0,0,1,4.32,3.48,7.4,7.4,0,0,1,.37,2.08c.05,2.68,0,5.37,0,8.05,0,.88-.12,1-1,1a2.55,2.55,0,0,1-1.48-.19,8,8,0,0,1-.13-2.49c0-1.77,0-3.54,0-5.3a9.36,9.36,0,0,0-.26-2.1,3.19,3.19,0,0,0-5.24-1.55,3.52,3.52,0,0,0-1.34,2.33,18.7,18.7,0,0,0-.12,2.12c0,2,0,3.95,0,5.93,0,1.19-.12,1.28-1.37,1.26a3.43,3.43,0,0,1-.64,0,.63.63,0,0,1-.57-.52,3.35,3.35,0,0,1,0-.63q0-6.15-.07-12.3c0-.71.13-.82.89-.84.21,0,.42,0,.63,0,.63,0,.89.3.9.9A5.77,5.77,0,0,0,974.18,240.2Z"/><path class="cls-1" d="M728.22,252.67a2.55,2.55,0,0,1-.18-1.44c0-2,0-4.1,0-6.15a10,10,0,0,0-.26-2.31,3.19,3.19,0,0,0-5.23-1.58,3.38,3.38,0,0,0-1.3,2.12,14.75,14.75,0,0,0-.18,2.1c0,2.12,0,4.24,0,6.36,0,.94-.16,1.06-1.14,1.07h-.43c-.84,0-1-.18-1.06-1,0-.28,0-.57,0-.85,0-3.82,0-7.63-.07-11.45,0-.35-.09-.84.25-1a2.57,2.57,0,0,1,1.85,0c.15.06.24.34.28.53s.1.66.15,1c.72-.05,1-.64,1.42-.95a5.67,5.67,0,0,1,3.6-1,4.67,4.67,0,0,1,4.34,3.46,7.77,7.77,0,0,1,.37,2.08c0,2.68,0,5.37,0,8.06,0,.89-.12,1-1,1A2.71,2.71,0,0,1,728.22,252.67Z"/><path class="cls-1" d="M782.47,251.19c-.58,0-.78.41-1.09.68a5.57,5.57,0,0,1-5,1.07,4,4,0,0,1-2.81-2.38,7.82,7.82,0,0,1-.66-3.3c0-2.62,0-5.23,0-7.85,0-.73.17-.86.86-.89.29,0,.57,0,.85,0,.84,0,1,.13,1,1,0,2,0,4.1,0,6.15a16.46,16.46,0,0,0,.11,2.33c.24,1.87,1.22,2.85,2.78,2.91a3.53,3.53,0,0,0,3.65-2.62,7.51,7.51,0,0,0,.19-2.11q0-3.18,0-6.36c0-.35,0-.7,0-1,.62-.43,1.27-.21,1.87-.24a.59.59,0,0,1,.69.62c0,.35,0,.7,0,1.06l.06,11.45c0,.21,0,.43,0,.64a.56.56,0,0,1-.55.52c-.21,0-.42,0-.64,0-.86,0-.9,0-1.15-.89C782.58,251.7,782.53,251.43,782.47,251.19Z"/><path class="cls-1" d="M485.82,238.57H488a1.39,1.39,0,0,1,.3,1.07l.06,12.09a3.33,3.33,0,0,1,0,.63.46.46,0,0,1-.4.42,7.91,7.91,0,0,1-.84.06c-.81,0-.83,0-1.1-1-.07-.25,0-.56-.3-.7s-.59.35-.85.58a5.45,5.45,0,0,1-4.33,1.29,4.16,4.16,0,0,1-3.61-2.56,7,7,0,0,1-.6-2.88c-.05-2.76-.05-5.52,0-8.27,0-.68.18-.81.92-.83.28,0,.57,0,.85,0,.74,0,.9.15.9.85,0,1.77,0,3.54,0,5.31,0,.77,0,1.55,0,2.33a7.32,7.32,0,0,0,.1,1.05c.28,1.77,1.18,2.73,2.64,2.83a3.51,3.51,0,0,0,3.75-2.46,7.06,7.06,0,0,0,.24-2.1q0-3.39,0-6.79C485.72,239.27,485.78,239,485.82,238.57Z"/><path class="cls-1" d="M870.5,246.3c0,2.86,1.36,4.4,4.08,4.68a9.56,9.56,0,0,0,4-.46c.41-.12.66.09.77.49.28,1,.15,1.28-.77,1.58a11.21,11.21,0,0,1-5.45.35,5.83,5.83,0,0,1-4.7-3.84,8.87,8.87,0,0,1,.47-7.59,6.14,6.14,0,0,1,5.77-3.31,5.51,5.51,0,0,1,5.53,4.64,11.35,11.35,0,0,1,.2,2.11c0,1-.14,1.18-1.23,1.18-2.41,0-4.81,0-7.21,0A2.68,2.68,0,0,0,870.5,246.3Zm.06-2.3a50.41,50.41,0,0,0,6.69.18.53.53,0,0,0,.52-.54,3.38,3.38,0,0,0-3.18-3.5C872.3,240.09,870.82,241.46,870.56,244Z"/><path class="cls-1" d="M954.05,250.36c.18.52.31.85.41,1.18a.65.65,0,0,1-.38.87,10.57,10.57,0,0,1-7.25.15,5.88,5.88,0,0,1-3.61-3.91,9,9,0,0,1,.38-6.61,6.34,6.34,0,0,1,7.53-3.62,4.86,4.86,0,0,1,3,2.11,7.8,7.8,0,0,1,1.23,4.84.74.74,0,0,1-.82.76h-7.42c-2,0-2.19.33-1.43,2.19a4,4,0,0,0,2.93,2.5A6.7,6.7,0,0,0,951,251,10.78,10.78,0,0,0,954.05,250.36ZM949,244.21v0c1.12,0,2.25,0,3.38,0a.48.48,0,0,0,.49-.55,3.43,3.43,0,0,0-3.49-3.47,3.55,3.55,0,0,0-3.37,2.13c-.94,1.91-.59,2,1.09,1.94C947.69,244.2,948.32,244.21,949,244.21Z"/><path class="cls-1" d="M647.21,251.46c-.44.3-.84.58-1.25.84a5.47,5.47,0,0,1-4.28.64,3.66,3.66,0,0,1-2.87-2.81,4.28,4.28,0,0,1,1.24-4.45,7,7,0,0,1,3.61-1.64c.9-.16,1.82-.22,2.73-.33s.93-.35.74-1.13a2.76,2.76,0,0,0-3-2.4,7,7,0,0,0-3.09.61c-.42.19-.75.36-1-.23-.37-.87-.36-1.16.22-1.43a8.8,8.8,0,0,1,6-.68,4.26,4.26,0,0,1,3.21,3.05,8.51,8.51,0,0,1,.38,2.29c.08,2.75.08,5.5.11,8.26,0,.58-.17.75-.73.78-.21,0-.43,0-.64,0-.62.07-.88-.28-1-.82A2.45,2.45,0,0,0,647.21,251.46Zm-1.45-5.84a13.92,13.92,0,0,0-1.63.2,4.12,4.12,0,0,0-2.07,1,2.68,2.68,0,0,0-.57,3,2.16,2.16,0,0,0,2,1.38,3.54,3.54,0,0,0,3.72-2.54,11.23,11.23,0,0,0,.08-2.53c0-.32-.3-.45-.6-.48S646.1,245.62,645.76,245.62Z"/><path class="cls-1" d="M899.31,245.8c0-.42,0-.85.07-1.27a7.06,7.06,0,0,1,10.09-5.67c2.43,1.13,3.48,3.2,3.82,5.71a8.28,8.28,0,0,1,0,2.11c-.59,5-4.76,7.14-9,6.19a6.64,6.64,0,0,1-4.88-5.8C899.34,246.65,899.34,246.23,899.31,245.8Zm2.64.14a6.56,6.56,0,0,0,.6,2.67,3.92,3.92,0,0,0,3.61,2.54,3.85,3.85,0,0,0,3.77-2.29,7,7,0,0,0,0-6.53,3.75,3.75,0,0,0-3.62-2.15,3.79,3.79,0,0,0-3.55,2.26A7.46,7.46,0,0,0,902,245.94Z"/><path class="cls-1" d="M797.75,245.84a11.47,11.47,0,0,1,.28-2.42c1.17-4.69,6.28-6.24,10-4.53a6.11,6.11,0,0,1,3.12,3.3,8.88,8.88,0,0,1,.53,5.19c-.85,4.4-4.87,6.46-9,5.47a6.65,6.65,0,0,1-4.81-5.85C797.77,246.58,797.77,246.15,797.75,245.84Zm2.64-.25a6.73,6.73,0,0,0,.64,3.09,3.89,3.89,0,0,0,3.65,2.47A3.78,3.78,0,0,0,808.3,249a6.91,6.91,0,0,0-.14-6.9,4,4,0,0,0-6.86.06A7.17,7.17,0,0,0,800.39,245.59Z"/><path class="cls-1" d="M528.84,245.46c0,3.76-1.7,6.31-4.79,7.25-5,1.53-8.28-1.57-9-4.93a9.16,9.16,0,0,1,.25-5,6.93,6.93,0,0,1,7.35-4.53,6.63,6.63,0,0,1,6.11,6C528.83,244.75,528.83,245.25,528.84,245.46Zm-2.62.56a7.19,7.19,0,0,0-1-4.06,4,4,0,0,0-6.74.12,7,7,0,0,0-.18,6.91,3.75,3.75,0,0,0,3.42,2.16,3.89,3.89,0,0,0,3.67-2.1A6.25,6.25,0,0,0,526.22,246Z"/><path class="cls-1" d="M492.56,245.55v-6.37c0-.43.19-.65.62-.65h.64c.87,0,.87,0,1,.92,0,.13,0,.28,0,.42a.36.36,0,0,0,.61.22,6,6,0,0,1,2.88-1.69,4.89,4.89,0,0,1,6.18,4,10,10,0,0,1,.17,1.9c0,2.48,0,5,0,7.43,0,1.09-.11,1.17-1.26,1.16h-.43c-.71,0-.9-.2-.92-.87,0-.92,0-1.84,0-2.76,0-1.49,0-3,0-4.46a8.56,8.56,0,0,0-.17-1.9,3.17,3.17,0,0,0-5.2-1.7,3.87,3.87,0,0,0-1.53,3.13v4c0,.92,0,1.84,0,2.76,0,1.84,0,1.81-1.94,1.74a.62.62,0,0,1-.64-.67c0-.43,0-.85,0-1.28v-5.31Z"/><path class="cls-1" d="M937.75,235.12v2.33q0,6.68,0,13.35c0,.5,0,1,0,1.49a.56.56,0,0,1-.56.52,10.45,10.45,0,0,1-1.48,0,.55.55,0,0,1-.52-.56c0-.56,0-1.12,0-1.69V237c0-.36,0-.71,0-1.06,0-.5-.21-.79-.75-.78h-3.81a5.25,5.25,0,0,1-1-.06.43.43,0,0,1-.38-.44,10.55,10.55,0,0,1,0-1.26c0-.15.25-.33.42-.38a3.36,3.36,0,0,1,.84,0h12.08a3.91,3.91,0,0,1,.84,0c.18,0,.47.2.48.33a4.83,4.83,0,0,1,0,1.47c0,.26-.41.34-.7.34h-5.35Z"/><path class="cls-1" d="M1001.21,253.09a6.56,6.56,0,0,1-6.91-4.82,8.59,8.59,0,0,1,0-4.82c1.05-3.58,4.08-5.37,7.8-5.23a12.68,12.68,0,0,1,2.5.48c.51.13.65.45.49,1-.37,1.16-.41,1.22-1.43.93a7.54,7.54,0,0,0-.82-.2,5,5,0,0,0-5.47,2.32,6.1,6.1,0,0,0,.63,6.76,4.37,4.37,0,0,0,2.78,1.4,7.86,7.86,0,0,0,2.94-.21c.34-.09.72-.38,1-.09a1.85,1.85,0,0,1,.4,1.4c0,.32-.28.45-.56.56A9.65,9.65,0,0,1,1001.21,253.09Z"/><path class="cls-1" d="M631.07,253.09a8.5,8.5,0,0,1-3.11-.55c-.71-.31-.83-.52-.6-1.29,0-.14.07-.28.12-.41a.61.61,0,0,1,.83-.42c.67.22,1.33.47,2,.65a3.61,3.61,0,0,0,2.48-.28,2,2,0,0,0,.5-3.21,5.61,5.61,0,0,0-1.83-1,12.31,12.31,0,0,1-2.25-1.17,3.68,3.68,0,0,1,.55-6.55,6.5,6.5,0,0,1,5.74,0,.53.53,0,0,1,.31.69c-.05.21-.15.4-.21.6-.15.48-.41.72-.94.5a4.84,4.84,0,0,0-3.3-.33,1.85,1.85,0,0,0-1.33,1.51,1.54,1.54,0,0,0,.72,1.65,12.84,12.84,0,0,0,1.88,1,16.57,16.57,0,0,1,2.25,1.17,4.07,4.07,0,0,1-.35,6.66A7,7,0,0,1,631.07,253.09Z"/><path class="cls-1" d="M657,253.09a8.51,8.51,0,0,1-3.11-.56c-.7-.3-.8-.51-.57-1.3a2.77,2.77,0,0,1,.12-.41.61.61,0,0,1,.84-.4c.67.23,1.33.48,2,.65a3.54,3.54,0,0,0,2.29-.21,2,2,0,0,0,.49-3.43,8.09,8.09,0,0,0-1.68-.87,11.76,11.76,0,0,1-2.42-1.3,3.69,3.69,0,0,1,.4-6.24,6.47,6.47,0,0,1,6.12-.14.54.54,0,0,1,.28.71c-.08.26-.19.53-.3.79a.49.49,0,0,1-.66.33,12,12,0,0,0-1.83-.48,4.52,4.52,0,0,0-1.68.11,1.8,1.8,0,0,0-1.31,1.52,1.57,1.57,0,0,0,.74,1.65,15.82,15.82,0,0,0,1.88,1,16,16,0,0,1,2.25,1.17,4.06,4.06,0,0,1-.39,6.66A6.7,6.7,0,0,1,657,253.09Z"/><path class="cls-1" d="M737.81,253.09a8.74,8.74,0,0,1-3.12-.56c-.69-.29-.81-.57-.56-1.33l.16-.39a.58.58,0,0,1,.83-.38c.67.23,1.33.47,2,.64a3.54,3.54,0,0,0,2.29-.22,1.94,1.94,0,0,0,.64-3.28,5.1,5.1,0,0,0-1.64-1,20.11,20.11,0,0,1-2.1-1,3.59,3.59,0,0,1-2-3.89,4,4,0,0,1,3-3.24,7.05,7.05,0,0,1,4.58.21c.68.23.81.57.52,1.32s-.47.92-1.25.56a5,5,0,0,0-2.49-.38,2.05,2.05,0,0,0-1.33.58,1.76,1.76,0,0,0,0,2.63,7,7,0,0,0,1.84,1,14.13,14.13,0,0,1,2.27,1.13,4,4,0,0,1-.43,6.85A6.32,6.32,0,0,1,737.81,253.09Z"/><path class="cls-1" d="M964.78,253.09c-5.34,0-8.09-4.23-7-9.16.84-3.9,4-5.81,7.84-5.72a11.27,11.27,0,0,1,2.3.38c.78.17.94.57.67,1.44-.21.66-.39.77-1.07.63-.42-.08-.83-.2-1.24-.28a5.42,5.42,0,0,0-2.93.28,5.17,5.17,0,0,0-3.13,5.08,5,5,0,0,0,3.26,5,6.8,6.8,0,0,0,4.18-.15c.56-.19.78,0,.91.53.19.81.27,1.28-.78,1.58A13.25,13.25,0,0,1,964.78,253.09Z"/><path class="cls-1" d="M463.81,250.75c.84.05,1.54.12,2.24.11,1.91,0,2.92-.81,3.25-2.65a16.26,16.26,0,0,0,.26-3c0-3.47,0-6.94,0-10.4,0-.5,0-1,.05-1.48A.43.43,0,0,1,470,233a15.88,15.88,0,0,1,1.69,0c.32,0,.45.29.46.59s0,.71,0,1.06c0,3.75,0,7.5,0,11.25a12.94,12.94,0,0,1-.37,3.16,4.91,4.91,0,0,1-4.63,4,11.74,11.74,0,0,1-3-.11c-.74-.12-.87-.35-.71-1.2C463.61,251.45,463.69,251.18,463.81,250.75Z"/><path class="cls-1" d="M795.59,250.89a3,3,0,0,1,.2.62c.12,1.27,0,1.39-1.12,1.51-3.31.35-4.79-.88-4.91-4.2-.08-2.48,0-4.95,0-7.42,0-.76,0-.76-.87-.85a1.47,1.47,0,0,0-.21,0c-1-.11-1.15-.26-1.09-1.32,0-.41.16-.65.6-.7s1,.12,1.56-.28v-2.92a4.27,4.27,0,0,1,2.35-.74c.4.42.2.94.24,1.41.08.76-.3,1.67.18,2.25s1.47.17,2.22.27a5.83,5.83,0,0,1,.84,0c.17,0,.43.2.45.34a5.82,5.82,0,0,1,0,1.25c0,.11-.16.24-.27.28a2.12,2.12,0,0,1-.62.1,11.81,11.81,0,0,0-2.52.13c-.5.93-.19,1.93-.23,2.9-.06,1.41,0,2.83,0,4.24a6.72,6.72,0,0,0,.06,1.27c.32,1.62,1,1.88,2.15,1.81C794.88,250.87,795.23,250.89,795.59,250.89Z"/><path class="cls-1" d="M763.6,240.62c-.3,0-.64,0-1-.08-.88-.09-1-.18-1-1s.07-.94.93-1c.21,0,.42,0,.63,0,.43,0,.62-.24.62-.66,0-.7,0-1.41,0-2.12a.74.74,0,0,1,.58-.76,3.56,3.56,0,0,1,1.93-.31c0,.76,0,1.53.06,2.29,0,1.55-.16,1.59,1.65,1.57h1.28c.29,0,.65,0,.74.29a2,2,0,0,1,0,1.45.75.75,0,0,1-.55.25c-.77,0-1.55,0-2.33.05-.51,0-.75.28-.74.79q0,3.6,0,7.2a3.4,3.4,0,0,0,.11.84,1.71,1.71,0,0,0,1.77,1.5c.14,0,.28,0,.42,0,1.09,0,1.3.28,1.2,1.36a.68.68,0,0,1-.64.7l-.42.06c-3.41.39-4.91-.86-5-4.3-.06-2.12,0-4.24,0-6.36A3.2,3.2,0,0,0,763.6,240.62Z"/><path class="cls-1" d="M747.17,240.68l-1-.13c-1.15-.11-1.43-.47-1.19-1.59a.49.49,0,0,1,.4-.42c.54-.1,1.13.16,1.77-.32,0-.74,0-1.58,0-2.42a.86.86,0,0,1,.71-.9,4.09,4.09,0,0,1,1.74-.27,13.44,13.44,0,0,1,.12,3.11c0,.51.19.79.73.78.71,0,1.42,0,2.12,0s.88.17.89.86c0,1-.14,1.12-1.07,1.15-.7,0-1.41,0-2.11,0a.49.49,0,0,0-.52.53c0,1.2,0,2.4,0,3.6s0,2.4,0,3.6a5.1,5.1,0,0,0,.21,1.46,1.5,1.5,0,0,0,1.41,1.1l.63,0c1.15.05,1.31.22,1.22,1.33,0,.38-.19.68-.61.73a16,16,0,0,1-1.69.13,3.33,3.33,0,0,1-3.67-3.29,21.49,21.49,0,0,1-.09-2.54C747.16,245.07,747.17,242.88,747.17,240.68Z"/><path class="cls-1" d="M713.66,232.92c0,.68.08,1.17.08,1.66v16.56c0,.36,0,.71,0,1.06a.62.62,0,0,1-.7.62c-.42,0-.85,0-1.27,0s-.6-.31-.62-.71c0-.14,0-.28,0-.42q0-9,0-18.05a3.28,3.28,0,0,1,.13-.56A9.29,9.29,0,0,1,713.66,232.92Z"/><path class="cls-1" d="M539,240.59l-.71.08a3.61,3.61,0,0,0-3.46,3.13,11.4,11.4,0,0,0-.13,2.11c0,2,0,4,0,5.92,0,.82-.18,1-1,1a7.48,7.48,0,0,1-1.06,0,.57.57,0,0,1-.53-.56c0-.49,0-1,0-1.48,0-3.74.1-7.48-.13-11.22,0-.93.09-1,1.11-1h.21c.88,0,.94.07,1,.92,0,.21,0,.43,0,.64a2.78,2.78,0,0,0,.12.38c.44,0,.52-.4.77-.61a8.86,8.86,0,0,1,1.28-1.1,2.43,2.43,0,0,1,2.19-.45c.79.36.3,1.25.38,1.91A1.56,1.56,0,0,1,539,240.59Z"/><path class="cls-1" d="M916.48,238.72a2.13,2.13,0,0,1,1.31-.2c.73,0,.78.07,1,.83.07.31-.07.69.28.92.45,0,.54-.4.79-.61a7.53,7.53,0,0,1,1-.81c.73-.45,1.6-.93,2.38-.54s.22,1.4.4,2c-.34.43-.72.32-1.05.35a3.46,3.46,0,0,0-3.13,2.74,9.23,9.23,0,0,0-.3,2.73q0,2.86,0,5.73c0,.81-.18,1-1,1a6.23,6.23,0,0,1-1.06-.05.59.59,0,0,1-.52-.58c0-.35,0-.7,0-1.06,0-3.89-.05-7.78-.06-11.67A5.29,5.29,0,0,1,916.48,238.72Z"/><path class="cls-1" d="M883.75,238.59a4.18,4.18,0,0,1,2,.09c0,.26.09.53.12.81s0,.64.26.76.59-.27.79-.51a4.43,4.43,0,0,1,2.72-1.51c.74-.13,1.1.12,1.12.84a2.56,2.56,0,0,1-.15,1.45,1.44,1.44,0,0,1-.4.13c-2.4.31-3.39,1.19-3.82,3.49a10.06,10.06,0,0,0-.12,1.9c0,2,0,4,0,5.94,0,.69-.19.83-.91.85h-.85c-.66,0-.8-.2-.84-.94,0-.14,0-.28,0-.42q0-6.15,0-12.3A3,3,0,0,1,883.75,238.59Z"/><path class="cls-1" d="M606.4,240.47c.5-.06.57-.58.88-.82a6,6,0,0,1,1.34-1c2.3-.88,2.45-.57,2.35,1.47a1.85,1.85,0,0,1-.12.4.82.82,0,0,1-.38.15,3.31,3.31,0,0,0-2.68,1,4.46,4.46,0,0,0-1.21,3.09c0,1.7,0,3.4,0,5.1,0,.71,0,1.41,0,2.12,0,.49-.21.81-.74.83H605c-.86,0-1-.11-1-1q0-6.47,0-12.94a.56.56,0,0,1,.08-.2c.37-.29.81-.17,1.21-.17.8,0,.85.07.92.81,0,.35.05.7.08,1.06C606.23,240.42,606.34,240.44,606.4,240.47Z"/><path class="cls-1" d="M524.16,123.49h0V82.07c0-1.07,0-2.13,0-3.19,0-.88-.12-1-1-1l-13.6,0a5.93,5.93,0,0,0-.84.06.59.59,0,0,0-.53.57c0,.35,0,.71,0,1.06v22.73q0,28.89,0,57.79a65.93,65.93,0,0,1-1,12.46,30.85,30.85,0,0,1-3,9,16.48,16.48,0,0,1-10.86,8.5,37.21,37.21,0,0,1-17.86-.26c-.89-.21-1.78-.46-2.67-.69a2.4,2.4,0,0,0-.83-.13l-.11.05a.47.47,0,0,1-.05.1.43.43,0,0,1,0,0,52,52,0,0,0-1.53,6c-1.07,4.95-.83,6.15-.83,6.15h0c.06,1,1,.91,4.41,1.81a55,55,0,0,0,25.83,0,29.43,29.43,0,0,0,16.54-10.83,35.17,35.17,0,0,0,5-9.55,55.9,55.9,0,0,0,3-18.35C524.2,150.83,524.16,137.16,524.16,123.49Z"/><path class="cls-1" d="M508.93,245.52c0-2.05,0-4.09,0-6.13,0-.72.16-.84.89-.87.35,0,.7,0,1.05,0a.6.6,0,0,1,.67.63c0,.28,0,.56,0,.84V251.4a8,8,0,0,1,0,.85c-.06.46-.32.61-1.16.58-.52,0-1.2.22-1.39-.56a4.07,4.07,0,0,1-.05-1.05c0-1.9,0-3.8,0-5.7Z"/><path class="cls-1" d="M758.57,238.52a1.57,1.57,0,0,1,.32,1.12v11.84a4.74,4.74,0,0,1,0,.84.59.59,0,0,1-.58.5,6,6,0,0,1-.85,0c-1,0-1.15-.14-1.16-1.06q0-6.12,0-12.25c0-.88.13-1,1-1C757.7,238.5,758.19,238.52,758.57,238.52Z"/><path class="cls-1" d="M990.71,245.91c0,2,0,4,0,5.94,0,.85-.14,1-1,1-.29,0-.57,0-.85,0a.62.62,0,0,1-.7-.62c0-.35,0-.7,0-1v-11c0-.36,0-.71,0-1.06a.52.52,0,0,1,.55-.51l1.28,0c.54,0,.73.31.73.8v5.52c0,.36,0,.71,0,1.07Z"/><path class="cls-1" d="M896,245.72c0,2.05,0,4.1,0,6.15,0,.84-.15.94-1,1a8.07,8.07,0,0,1-.85,0,.65.65,0,0,1-.69-.64c0-.28,0-.56,0-.84q0-5.75,0-11.47c0-.14,0-.28,0-.42,0-.77.14-.89.83-.92.21,0,.42,0,.63,0,1.07,0,1.12,0,1.13,1,0,2.05,0,4.1,0,6.16Z"/><path class="cls-1" d="M948.06,236.33c.78-1.18,1.48-2.15,2.1-3.17a1.67,1.67,0,0,1,1.73-.91c.41,0,.84,0,1.21,0,.27.46,0,.72-.22,1-.63.75-1.26,1.51-1.9,2.25C950.05,236.59,950,236.58,948.06,236.33Z"/><path class="cls-1" d="M481.11,236.32c.67-1,1.29-1.8,1.74-2.67a2.38,2.38,0,0,1,2.74-1.39l.6.07c.22.43-.08.67-.29.93-.63.76-1.32,1.47-1.89,2.27A2.23,2.23,0,0,1,481.11,236.32Z"/><path class="cls-1" d="M991.1,234.65a1.58,1.58,0,0,1-1.74,1.46,1.6,1.6,0,0,1-1.52-1.69,1.63,1.63,0,0,1,3.26.23Z"/><path class="cls-1" d="M511.92,234.59a1.5,1.5,0,0,1-1.65,1.53,1.59,1.59,0,0,1,.12-3.18A1.51,1.51,0,0,1,511.92,234.59Z"/><path class="cls-1" d="M757.69,232.94a1.53,1.53,0,0,1,1.56,1.63,1.5,1.5,0,0,1-1.63,1.55,1.48,1.48,0,0,1-1.54-1.62A1.5,1.5,0,0,1,757.69,232.94Z"/><path class="cls-1" d="M894.78,236.1a1.46,1.46,0,0,1-1.54-1.6,1.51,1.51,0,0,1,1.61-1.55,1.55,1.55,0,0,1,1.56,1.62A1.49,1.49,0,0,1,894.78,236.1Z"/><path class="cls-2" d="M377.89,305.18v-274h.38v274Z"/><path class="cls-1" d="M41.75,156.28a.25.25,0,0,1,.36,0c.17.25.94,1.7.94,1.7s6.88,14.9,10.79,22.12a295.82,295.82,0,0,0,20,31.8Q81.06,222,89.2,231.42c0,.06.09.11.13.16,2.31,3,2.39,2.08-.83,4.86-5.1,4.4-10.36,8.6-15.84,12.52A20.86,20.86,0,0,1,67.58,252a.94.94,0,0,1-1.25-.3c-1.65-1.94-3.33-3.86-4.95-5.82a291.08,291.08,0,0,1-32.95-49.09C26.1,192.45,24,188,21.74,183.55a2.2,2.2,0,0,1,.15-2.52c2.14-3.17,4.46-6.21,6.77-9.25,3.52-4.62,7.23-9.08,11-13.48A20.11,20.11,0,0,1,41.75,156.28Z"/><path class="cls-1" d="M291.63,66.85c-.22-5.51-.56-11-1.17-16.51-.47-4.22-.94-8.45-1.53-12.65s-1.29-8.25-2-12.36q-.51-2.88-1.25-5.7c-.32-1.24-.18-1.27-1.52-1.48-2-.3-2.32-.37-3.44-.51l-2.37-.31c-6.39-1-16-2.35-22.14-2.74-8.06-.51-22.44-.48-30.5-.15-2.14.09-6.2.42-10.21.76q-3.81.29-7.62.66l-3.36.35-.12,0h0q-7.24.8-14.42,1.95c-7.27,1.18-14.47,2.68-21.63,4.41A288.31,288.31,0,0,0,78.91,61.16a294,294,0,0,0-74.5,69.49l-.15.19a4.3,4.3,0,0,0-.82,1.32,4.32,4.32,0,0,0,.18,1.15h0a5.29,5.29,0,0,0,.13.54c.27,1.07.61,2.23.61,2.23h0q2.14,8,4.76,15.79h0v0c.6,1.8,1.21,3.58,1.84,5.37a7.87,7.87,0,0,0,.32.74l0,0,1.5,4.24h0c.73,2.11,1.64,4.15,2.4,6.24l0,.08a.53.53,0,0,0,.84.2l0-.05c.58-.72,1.17-1.43,1.72-2.16A281.72,281.72,0,0,1,37.5,143.44a292.38,292.38,0,0,1,37.19-33.21A284.86,284.86,0,0,1,100.6,92.85c5.67-3.36,11.42-6.56,17.3-9.53a299,299,0,0,1,29.94-13.08,296,296,0,0,1,33.07-10.1c6.67-1.64,13.4-3,20.17-4.1,4.54-.74,9.08-1.46,13.66-1.92,3.31-.33,6.61-.74,9.92-1.06,2.18-.21,4.37-.34,6.56-.48.82,0,1,.11,1,1,.11,1.55.25,3.1.27,4.66.11,6.51.13,13-.14,19.54s-.73,12.71-1.37,19.06q-1,10-2.75,20-2.16,12.33-5.38,24.44c-2.06,7.66-4.37,15.24-7,22.7a297,297,0,0,1-12.43,29.53,290.09,290.09,0,0,1-23.6,40,286.15,286.15,0,0,1-23.67,29.45q-6.27,6.79-12.93,13.21a11.49,11.49,0,0,1-2.13,1.74,1.25,1.25,0,0,1-1.57,0c-.44-.36-.91-.67-1.36-1-4.55-3.38-9.05-6.82-13.4-10.45s-8.56-7.21-12.59-11.09c-3.53-3.39-7-6.81-10.52-10.21-.51-.49-1-1-1.54-1.46a.56.56,0,0,0-.77-.06l-.81.68c-6.77,5.93-13.74,11.61-21,16.93a3.43,3.43,0,0,0-.91.8.51.51,0,0,0,0,.57A14.43,14.43,0,0,0,79,265.29a292.21,292.21,0,0,0,23,20.82,287.4,287.4,0,0,0,26.47,19.18q11.45,7.35,23.53,13.6c1.82.94,3.7,1.77,5.51,2.74a4.3,4.3,0,0,0,4.79-.35c.93-.64,1.9-1.23,2.83-1.88q11.63-8,22.49-17.08a291.59,291.59,0,0,0,24.46-23,295.25,295.25,0,0,0,26.65-32.49,291,291,0,0,0,27.68-48.41,287.24,287.24,0,0,0,13-34.55,291.57,291.57,0,0,0,10.58-50.62c.82-6.82,1.36-13.67,1.67-20.53Q292.18,79.82,291.63,66.85Z"/><rect class="cls-1" x="375.53" y="28.18" width="3.74" height="277.01"/></g></svg>